<svg version="1.1" id="Layer_1" xmlns="http://www.w3.org/2000/svg" xmlns:xlink="http://www.w3.org/1999/xlink" x="0px" y="0px"
	 width="100%" viewBox="0 0 3545 3544" enable-background="new 0 0 3545 3544" xml:space="preserve">
<path fill="#FFFFFF" opacity="1.000000" stroke="none" 
	d="
M1886.000000,3546.000000 
	C1257.333374,3546.000000 629.666687,3546.000000 2.000000,3546.000000 
	C2.000000,2364.666748 2.000000,1183.333374 2.000000,2.000000 
	C1184.000000,2.000000 2366.000000,2.000000 3548.000000,2.000000 
	C3548.000000,1183.333374 3548.000000,2364.666748 3548.000000,3546.000000 
	C2994.333252,3546.000000 2440.666748,3546.000000 1886.000000,3546.000000 
M1999.907227,2042.082886 
	C2011.742188,2035.844238 2023.577148,2029.605591 2035.880981,2023.119751 
	C2035.880981,2019.140259 2035.881104,2015.169312 2035.881104,2011.198486 
	C2035.881104,1698.798462 2035.881958,1386.398315 2035.867554,1073.998291 
	C2035.867432,1070.007568 2035.669067,1066.016846 2036.364136,1060.880737 
	C2042.267822,1057.327881 2048.171631,1053.775024 2055.484131,1049.979980 
	C2062.855225,1045.822144 2070.121826,1041.464478 2077.616211,1037.542480 
	C2103.704834,1023.889465 2129.885010,1010.410889 2155.995361,996.799683 
	C2159.496094,994.974792 2162.798828,992.769775 2167.604736,990.359375 
	C2199.676514,973.414062 2231.777832,956.524902 2263.804199,939.494080 
	C2275.523926,933.261719 2287.064941,926.692993 2300.053223,920.051697 
	C2330.588867,903.913574 2361.158936,887.839600 2391.645508,871.608948 
	C2405.979736,863.977661 2420.153320,856.044617 2435.782715,848.011902 
	C2463.936768,833.119141 2492.116943,818.276184 2520.232178,803.310425 
	C2532.225098,796.926636 2544.081299,790.286560 2557.366455,783.519226 
	C2567.234131,778.348511 2577.123047,773.217651 2586.965332,767.999573 
	C2616.100098,752.553589 2645.106201,736.858948 2674.422363,721.765564 
	C2681.275635,718.237000 2683.791992,714.248962 2683.740479,706.380493 
	C2683.360107,648.394958 2683.534668,590.405762 2683.534668,532.417725 
	C2683.534668,451.767670 2683.540527,371.117645 2683.515137,290.467590 
	C2683.514160,287.021088 2683.223633,283.574677 2683.012207,278.889191 
	C2678.218994,281.253387 2674.949219,282.765442 2671.770508,284.449554 
	C2636.454102,303.160248 2601.139648,321.874573 2565.862549,340.658783 
	C2561.788330,342.828156 2557.941895,345.426117 2552.562256,348.024902 
	C2527.074463,361.518921 2501.550781,374.945831 2476.112305,388.531921 
	C2460.643066,396.793579 2445.305176,405.300964 2428.478027,413.921173 
	C2390.372559,434.117279 2352.244385,454.270325 2314.179932,474.543549 
	C2306.006592,478.896820 2298.064453,483.684113 2288.597900,488.230774 
	C2264.570801,500.933929 2240.501221,513.558167 2216.530518,526.367126 
	C2199.604492,535.411499 2182.812256,544.706482 2164.539551,554.082886 
	C2139.046631,567.584717 2113.504883,580.995544 2088.081543,594.627075 
	C2075.548340,601.347229 2063.233887,608.475403 2049.435791,615.518616 
	C2020.106689,630.938721 1990.743164,646.293823 1961.462769,661.805847 
	C1946.240723,669.869995 1931.165527,678.211121 1914.675293,686.695068 
	C1876.744629,706.783997 1838.794189,726.835938 1800.898193,746.990356 
	C1792.398193,751.510986 1784.088989,756.390381 1774.286011,761.521667 
	C1751.173950,773.691528 1728.026978,785.795532 1704.965698,798.060974 
	C1694.481812,803.636902 1684.168091,809.532349 1672.363647,815.643066 
	C1652.366089,826.144836 1632.323120,836.561401 1612.385498,847.175720 
	C1596.861694,855.440186 1581.468872,863.950928 1564.665527,872.630920 
	C1547.377197,881.733337 1530.044678,890.753296 1512.812256,899.960388 
	C1493.835693,910.099426 1474.951172,920.410461 1454.707764,930.913086 
	C1430.724365,943.611389 1406.709106,956.250122 1382.773804,969.038574 
	C1373.756104,973.856689 1364.923706,979.021729 1354.637695,984.338562 
	C1321.803711,1001.639526 1288.951782,1018.906433 1256.153198,1036.274536 
	C1250.623169,1039.203003 1245.323975,1042.567383 1238.491943,1045.970093 
	C1200.584473,1066.034424 1162.656616,1086.060303 1124.781128,1106.184937 
	C1112.455444,1112.734009 1100.266357,1119.540527 1086.660767,1126.535645 
	C1058.132202,1141.601196 1029.569824,1156.603394 1001.091797,1171.763916 
	C989.971985,1177.683472 979.041687,1183.958984 966.611145,1190.228149 
	C953.589111,1197.389893 940.567139,1204.551758 926.154175,1211.950317 
	C896.418945,1227.584351 866.758972,1243.364746 836.890991,1258.740967 
	C830.141296,1262.215820 827.676514,1266.419312 827.692444,1274.265869 
	C827.973999,1412.736450 827.896729,1551.207642 827.897034,1689.678711 
	C827.897095,1692.911621 827.897034,1696.144409 827.897034,1701.135986 
	C832.346436,1699.243286 835.356873,1698.206543 838.140930,1696.740112 
	C861.686646,1684.337769 885.221619,1671.913818 908.690735,1659.367188 
	C916.578979,1655.150024 924.268188,1650.560669 933.470581,1645.914429 
	C945.645691,1639.269043 957.820801,1632.623657 971.398682,1625.808960 
	C993.181335,1614.345825 1015.025269,1602.997192 1036.727539,1591.384033 
	C1054.589600,1581.826050 1072.283569,1571.954224 1091.476685,1561.975586 
	C1128.088501,1542.586426 1164.729004,1523.250977 1201.296875,1503.779419 
	C1214.436401,1496.782959 1227.401123,1489.458496 1241.806885,1482.023071 
	C1246.368042,1479.412231 1250.845337,1476.639648 1255.504883,1474.217773 
	C1277.780273,1462.640747 1300.163330,1451.270142 1322.388062,1439.597290 
	C1333.811157,1433.597412 1344.982788,1427.119019 1357.669678,1420.420654 
	C1362.160278,1417.766235 1366.530518,1414.877441 1371.163208,1412.500000 
	C1387.364014,1404.185547 1403.752563,1396.232788 1419.881958,1387.784424 
	C1432.795532,1381.020386 1445.436157,1373.735229 1459.550903,1366.176147 
	C1481.255493,1354.834961 1503.016846,1343.600708 1524.644897,1332.115112 
	C1539.231445,1324.369019 1553.630127,1316.268555 1569.519409,1308.042847 
	C1593.113770,1295.615601 1616.702881,1283.178589 1640.317871,1270.790894 
	C1641.459351,1270.192139 1642.827026,1270.024780 1644.117065,1271.573975 
	C1644.119507,1586.349609 1644.120605,1901.125244 1644.140869,2215.900879 
	C1644.141113,2219.215332 1644.382446,2222.530518 1644.549316,2225.843506 
	C1644.562378,2226.103516 1644.833740,2226.406250 1645.065430,2226.584961 
	C1645.320312,2226.781494 1645.668091,2226.857666 1646.858521,2227.356689 
	C1665.591309,2217.221924 1684.856567,2206.798828 1705.525513,2196.064697 
	C1713.323242,2191.970947 1721.137085,2187.907227 1728.915161,2183.776123 
	C1739.963379,2177.908203 1750.985229,2171.990479 1763.437256,2165.877197 
	C1775.421753,2159.681152 1787.454468,2153.576172 1799.374878,2147.259033 
	C1808.362549,2142.496094 1817.206177,2137.461426 1827.394287,2131.835205 
	C1843.642822,2123.352783 1859.891357,2114.870361 1877.417114,2105.736816 
	C1888.346558,2100.037598 1899.276001,2094.338623 1911.610474,2088.259766 
	C1925.265381,2080.964600 1938.920288,2073.669434 1953.728516,2065.593750 
	C1954.237061,2065.208496 1954.701416,2064.736816 1955.260498,2064.450195 
	C1969.677612,2057.061523 1984.104736,2049.691895 1999.907227,2042.082886 
M862.462646,2913.750977 
	C864.211365,2903.242676 866.038452,2892.746582 867.696472,2882.223877 
	C879.303650,2808.560791 890.863647,2734.890625 902.484009,2661.229736 
	C903.342590,2655.787109 904.554199,2650.400391 905.701172,2644.473633 
	C977.211914,2644.473633 1047.746948,2644.473633 1119.415649,2644.473633 
	C1111.119507,2604.619141 1103.021973,2565.718018 1094.939819,2526.891113 
	C941.813477,2526.891113 789.652344,2526.891113 636.950745,2526.891113 
	C630.492493,2566.218262 624.111389,2605.075439 617.555359,2644.997559 
	C668.518127,2644.997559 718.001465,2644.997559 768.583435,2644.997559 
	C748.006958,2775.046143 727.589111,2904.091797 707.111145,3033.517822 
	C753.282959,3033.517822 798.416931,3033.517822 843.667908,3033.517822 
	C849.919067,2993.756104 856.071533,2954.622314 862.462646,2913.750977 
M2644.070068,3011.310791 
	C2661.306152,2902.563477 2678.542236,2793.816406 2695.861084,2684.546875 
	C2656.338623,2684.546875 2617.508301,2684.546875 2578.502441,2684.546875 
	C2575.867920,2700.665039 2573.317139,2716.270996 2570.741699,2732.027100 
	C2569.424316,2731.578125 2569.001465,2731.565430 2568.809814,2731.348633 
	C2566.621582,2728.869141 2564.441162,2726.381592 2562.311035,2723.852295 
	C2542.196045,2699.968994 2517.676270,2682.793457 2486.780029,2676.393066 
	C2455.124756,2669.835449 2423.697998,2671.815186 2393.332275,2683.130371 
	C2346.146729,2700.712891 2314.004395,2734.756836 2292.321289,2779.092773 
	C2273.584961,2817.403809 2268.231201,2858.480225 2270.836426,2900.682129 
	C2272.409180,2926.160645 2277.848877,2950.831299 2290.062988,2973.512451 
	C2314.928955,3019.687012 2352.628662,3046.370605 2406.070801,3047.205811 
	C2449.887695,3047.890625 2487.214600,3031.546631 2518.523438,3001.105713 
	C2522.038330,2997.688477 2525.621826,2994.341309 2530.447266,2989.749756 
	C2528.651611,3005.171387 2527.026855,3019.125732 2525.333984,3033.665527 
	C2564.004639,3033.665527 2601.854248,3033.665527 2640.327393,3033.665527 
	C2641.517822,3026.751709 2642.697510,3019.900146 2644.070068,3011.310791 
M1652.102539,2992.884277 
	C1675.513062,3018.511719 1704.304565,3034.830811 1738.052002,3042.585449 
	C1772.672607,3050.540527 1807.527344,3050.726074 1842.187866,3043.859619 
	C1905.912354,3031.234863 1953.742798,2996.351562 1983.123779,2938.162598 
	C2002.964966,2898.867188 2007.043213,2856.550049 2000.310913,2813.469482 
	C1989.768066,2746.005371 1950.605591,2702.376709 1886.078979,2681.694824 
	C1849.212036,2669.878174 1811.252197,2669.066650 1773.414185,2676.171143 
	C1707.480469,2688.550293 1659.063110,2724.858643 1629.724243,2785.397217 
	C1613.348755,2819.186768 1609.324097,2855.409912 1611.742310,2892.545166 
	C1614.174683,2929.895996 1626.214233,2963.416748 1652.102539,2992.884277 
M1060.586060,3079.543457 
	C1039.269897,3115.727783 1017.198059,3151.474609 995.766724,3188.669434 
	C998.709106,3188.860596 1000.005798,3189.017578 1001.302551,3189.018066 
	C1039.957764,3189.033691 1078.614014,3188.895508 1117.267212,3189.184326 
	C1123.165283,3189.228271 1126.057373,3187.126709 1128.747437,3182.122070 
	C1216.682739,3018.525879 1304.765259,2855.009033 1392.796021,2691.464355 
	C1393.958130,2689.305420 1394.738037,2686.941162 1395.834106,2684.346680 
	C1351.285889,2684.346680 1307.698120,2684.346680 1263.237915,2684.346680 
	C1231.915894,2752.910156 1195.255493,2818.980225 1167.625488,2889.435059 
	C1155.871094,2820.211914 1140.139160,2752.579834 1127.313477,2684.733887 
	C1084.093262,2684.733887 1042.062866,2684.733887 999.282043,2684.733887 
	C1000.676758,2689.738037 1001.759644,2693.889648 1002.989563,2697.997314 
	C1033.901855,2801.239990 1064.763062,2904.498291 1095.914673,3007.668945 
	C1097.843384,3014.056641 1097.144897,3018.866943 1093.755981,3024.361084 
	C1082.746216,3042.211182 1072.157837,3060.321045 1060.586060,3079.543457 
M1396.032104,2988.798340 
	C1393.727295,3003.554443 1391.422485,3018.310547 1389.044678,3033.533447 
	C1430.943237,3033.533447 1472.080566,3033.533447 1513.345825,3033.533447 
	C1541.983276,2854.512939 1570.522705,2676.104980 1599.129883,2497.273193 
	C1556.877197,2497.273193 1515.783936,2497.273193 1474.429321,2497.273193 
	C1470.900635,2519.256592 1467.447754,2540.602295 1464.051758,2561.957031 
	C1456.417480,2609.962402 1448.833008,2657.975342 1441.187500,2705.978760 
	C1432.808838,2758.583496 1424.390381,2811.181885 1415.977905,2863.781250 
	C1409.405884,2904.874023 1402.816650,2945.964355 1396.032104,2988.798340 
M2790.671631,2691.648193 
	C2785.906006,2721.905029 2781.140137,2752.162109 2776.374268,2782.418945 
	C2764.407959,2858.390381 2752.425781,2934.359375 2740.498291,3010.336914 
	C2739.291260,3018.024902 2738.411621,3025.764404 2737.366211,3033.583740 
	C2779.423340,3033.583740 2820.280273,3033.583740 2861.374512,3033.583740 
	C2879.829346,2917.056396 2898.197510,2801.074463 2916.651611,2684.551270 
	C2874.588867,2684.551270 2833.453857,2684.551270 2792.296387,2684.551270 
	C2791.817139,2686.704102 2791.456055,2688.325195 2790.671631,2691.648193 
M2183.608398,3006.354980 
	C2184.687500,3003.212402 2185.924561,3000.114014 2186.821777,2996.920410 
	C2199.261963,2952.634766 2169.867920,2910.243896 2124.530518,2907.030273 
	C2094.937988,2904.932617 2068.225098,2920.576416 2055.754395,2947.306885 
	C2043.685669,2973.176270 2049.230469,3003.850586 2068.897217,3025.178711 
	C2099.857666,3058.754395 2160.041260,3054.800049 2183.608398,3006.354980 
M2845.853027,2643.517090 
	C2899.269043,2658.875732 2936.277100,2617.159668 2934.399170,2578.596436 
	C2933.111328,2552.147217 2922.071777,2532.156006 2898.533447,2520.812988 
	C2874.347412,2509.157227 2849.884033,2510.448730 2827.803955,2526.933105 
	C2785.982666,2558.155762 2795.095215,2623.836426 2845.853027,2643.517090 
z"/>
<path fill="#241917" opacity="1.000000" stroke="none" 
	d="
M862.343323,2914.619629 
	C856.071533,2954.622314 849.919067,2993.756104 843.667908,3033.517822 
	C798.416931,3033.517822 753.282959,3033.517822 707.111145,3033.517822 
	C727.589111,2904.091797 748.006958,2775.046143 768.583435,2644.997559 
	C718.001465,2644.997559 668.518127,2644.997559 617.555359,2644.997559 
	C624.111389,2605.075439 630.492493,2566.218262 636.950745,2526.891113 
	C789.652344,2526.891113 941.813477,2526.891113 1094.939819,2526.891113 
	C1103.021973,2565.718018 1111.119507,2604.619141 1119.415649,2644.473633 
	C1047.746948,2644.473633 977.211914,2644.473633 905.701172,2644.473633 
	C904.554199,2650.400391 903.342590,2655.787109 902.484009,2661.229736 
	C890.863647,2734.890625 879.303650,2808.560791 867.696472,2882.223877 
	C866.038452,2892.746582 864.211365,2903.242676 862.343323,2914.619629 
z"/>
<path fill="#52ADF2" opacity="1.000000" stroke="none" 
	d="
M1876.139893,2106.387939 
	C1859.891357,2114.870361 1843.642822,2123.352783 1826.705933,2131.298828 
	C1825.345093,2124.188721 1824.086182,2117.614990 1824.084106,2111.041016 
	C1823.987305,1805.444092 1824.000000,1499.847046 1823.999756,1194.250122 
	C1823.999756,1191.250854 1824.131348,1188.243286 1823.950439,1185.254883 
	C1823.817383,1183.058960 1823.273438,1180.887939 1822.971558,1179.062012 
	C1817.698242,1176.856567 1813.915771,1179.126587 1809.991455,1180.983643 
	C1800.692017,1185.384277 1791.340332,1189.674683 1781.196289,1193.988892 
	C1776.375000,1193.867432 1774.217773,1191.822266 1774.055420,1187.812256 
	C1773.960938,1185.482422 1774.001709,1183.146729 1774.001587,1180.813599 
	C1773.999756,1049.153320 1773.969604,917.492920 1774.072388,785.832642 
	C1774.078735,777.589600 1775.127808,769.347290 1775.691895,761.104675 
	C1784.088989,756.390381 1792.398193,751.510986 1800.898193,746.990356 
	C1838.794189,726.835938 1876.744629,706.783997 1915.343506,687.465637 
	C1916.007812,767.544739 1916.002686,846.853333 1916.000244,926.161865 
	C1915.998413,984.810242 1915.968872,1043.458618 1916.035034,1102.106934 
	C1916.044556,1110.503052 1913.356201,1116.866577 1907.062134,1123.119507 
	C1901.789062,1128.357910 1896.207764,1132.488159 1889.939209,1135.977783 
	C1878.084839,1142.576782 1873.628540,1151.694580 1873.649902,1165.986084 
	C1874.110474,1473.556030 1873.987915,1781.126709 1874.088989,2088.697266 
	C1874.090942,2094.594482 1875.426636,2100.490967 1876.139893,2106.387939 
z"/>
<path fill="#241917" opacity="1.000000" stroke="none" 
	d="
M2643.973633,3012.179688 
	C2642.697510,3019.900146 2641.517822,3026.751709 2640.327393,3033.665527 
	C2601.854248,3033.665527 2564.004639,3033.665527 2525.333984,3033.665527 
	C2527.026855,3019.125732 2528.651611,3005.171387 2530.447266,2989.749756 
	C2525.621826,2994.341309 2522.038330,2997.688477 2518.523438,3001.105713 
	C2487.214600,3031.546631 2449.887695,3047.890625 2406.070801,3047.205811 
	C2352.628662,3046.370605 2314.928955,3019.687012 2290.062988,2973.512451 
	C2277.848877,2950.831299 2272.409180,2926.160645 2270.836426,2900.682129 
	C2268.231201,2858.480225 2273.584961,2817.403809 2292.321289,2779.092773 
	C2314.004395,2734.756836 2346.146729,2700.712891 2393.332275,2683.130371 
	C2423.697998,2671.815186 2455.124756,2669.835449 2486.780029,2676.393066 
	C2517.676270,2682.793457 2542.196045,2699.968994 2562.311035,2723.852295 
	C2564.441162,2726.381592 2566.621582,2728.869141 2568.809814,2731.348633 
	C2569.001465,2731.565430 2569.424316,2731.578125 2570.741699,2732.027100 
	C2573.317139,2716.270996 2575.867920,2700.665039 2578.502441,2684.546875 
	C2617.508301,2684.546875 2656.338623,2684.546875 2695.861084,2684.546875 
	C2678.542236,2793.816406 2661.306152,2902.563477 2643.973633,3012.179688 
M2396.627686,2889.811035 
	C2401.655273,2912.738037 2414.171875,2930.129639 2435.894043,2939.454346 
	C2464.568359,2951.763916 2503.348389,2948.972412 2529.572510,2918.492188 
	C2550.146484,2894.579102 2556.731201,2866.514648 2554.207275,2835.771484 
	C2551.862793,2807.209717 2532.119141,2783.554932 2504.526611,2775.996094 
	C2465.608887,2765.334717 2427.546875,2781.651123 2407.955566,2817.500977 
	C2395.842285,2839.666992 2393.222900,2863.447510 2396.627686,2889.811035 
z"/>
<path fill="#241917" opacity="1.000000" stroke="none" 
	d="
M1651.632568,2992.351807 
	C1626.214233,2963.416748 1614.174683,2929.895996 1611.742310,2892.545166 
	C1609.324097,2855.409912 1613.348755,2819.186768 1629.724243,2785.397217 
	C1659.063110,2724.858643 1707.480469,2688.550293 1773.414185,2676.171143 
	C1811.252197,2669.066650 1849.212036,2669.878174 1886.078979,2681.694824 
	C1950.605591,2702.376709 1989.768066,2746.005371 2000.310913,2813.469482 
	C2007.043213,2856.550049 2002.964966,2898.867188 1983.123779,2938.162598 
	C1953.742798,2996.351562 1905.912354,3031.234863 1842.187866,3043.859619 
	C1807.527344,3050.726074 1772.672607,3050.540527 1738.052002,3042.585449 
	C1704.304565,3034.830811 1675.513062,3018.511719 1651.632568,2992.351807 
M1882.182251,2870.958740 
	C1885.149780,2857.143066 1885.422363,2843.161621 1883.845459,2829.221924 
	C1880.772339,2802.056396 1862.866943,2781.540039 1836.185181,2775.393066 
	C1805.784180,2768.388672 1779.426147,2776.172852 1758.321411,2799.489258 
	C1735.212891,2825.020020 1727.118774,2855.630127 1730.605957,2889.213623 
	C1733.571899,2917.776611 1750.794434,2938.315674 1776.498901,2944.698242 
	C1805.716553,2951.953369 1831.953125,2945.653076 1853.971680,2924.589355 
	C1868.856567,2910.350098 1877.599243,2892.647705 1882.182251,2870.958740 
z"/>
<path fill="#50A2F2" opacity="1.000000" stroke="none" 
	d="
M1876.778564,2106.062500 
	C1875.426636,2100.490967 1874.090942,2094.594482 1874.088989,2088.697266 
	C1873.987915,1781.126709 1874.110474,1473.556030 1873.649902,1165.986084 
	C1873.628540,1151.694580 1878.084839,1142.576782 1889.939209,1135.977783 
	C1896.207764,1132.488159 1901.789062,1128.357910 1907.062134,1123.119507 
	C1913.356201,1116.866577 1916.044556,1110.503052 1916.035034,1102.106934 
	C1915.968872,1043.458618 1915.998413,984.810242 1916.000244,926.161865 
	C1916.002686,846.853333 1916.007812,767.544739 1916.017822,687.331665 
	C1931.165527,678.211121 1946.240723,669.869995 1961.462769,661.805847 
	C1990.743164,646.293823 2020.106689,630.938721 2050.873535,615.921631 
	C2056.106934,621.497437 2056.073486,627.463501 2056.019287,633.496887 
	C2054.775391,772.402405 2058.477051,911.330994 2054.075195,1050.222046 
	C2048.171631,1053.775024 2042.267822,1057.327881 2035.251465,1061.467529 
	C2026.282227,1065.958130 2018.322510,1069.670288 2010.603394,1073.829346 
	C2004.896606,1076.904053 1999.503540,1080.561035 1993.250977,1084.038330 
	C1979.019287,1091.410522 1965.507202,1098.702881 1951.281738,1106.067139 
	C1941.742065,1110.746826 1933.106812,1115.779907 1924.039429,1119.850342 
	C1913.738281,1124.474731 1909.727539,1131.225586 1909.739990,1143.041870 
	C1910.067749,1453.910889 1909.999146,1764.780273 1910.008545,2075.649658 
	C1910.008667,2079.979492 1910.136963,2084.309570 1910.205444,2088.639404 
	C1899.276001,2094.338623 1888.346558,2100.037598 1876.778564,2106.062500 
z"/>
<path fill="#241917" opacity="1.000000" stroke="none" 
	d="
M1060.996704,3078.937256 
	C1072.157837,3060.321045 1082.746216,3042.211182 1093.755981,3024.361084 
	C1097.144897,3018.866943 1097.843384,3014.056641 1095.914673,3007.668945 
	C1064.763062,2904.498291 1033.901855,2801.239990 1002.989563,2697.997314 
	C1001.759644,2693.889648 1000.676758,2689.738037 999.282043,2684.733887 
	C1042.062866,2684.733887 1084.093262,2684.733887 1127.313477,2684.733887 
	C1140.139160,2752.579834 1155.871094,2820.211914 1167.625488,2889.435059 
	C1195.255493,2818.980225 1231.915894,2752.910156 1263.237915,2684.346680 
	C1307.698120,2684.346680 1351.285889,2684.346680 1395.834106,2684.346680 
	C1394.738037,2686.941162 1393.958130,2689.305420 1392.796021,2691.464355 
	C1304.765259,2855.009033 1216.682739,3018.525879 1128.747437,3182.122070 
	C1126.057373,3187.126709 1123.165283,3189.228271 1117.267212,3189.184326 
	C1078.614014,3188.895508 1039.957764,3189.033691 1001.302551,3189.018066 
	C1000.005798,3189.017578 998.709106,3188.860596 995.766724,3188.669434 
	C1017.198059,3151.474609 1039.269897,3115.727783 1060.996704,3078.937256 
z"/>
<path fill="#241917" opacity="1.000000" stroke="none" 
	d="
M1396.133545,2987.927002 
	C1402.816650,2945.964355 1409.405884,2904.874023 1415.977905,2863.781250 
	C1424.390381,2811.181885 1432.808838,2758.583496 1441.187500,2705.978760 
	C1448.833008,2657.975342 1456.417480,2609.962402 1464.051758,2561.957031 
	C1467.447754,2540.602295 1470.900635,2519.256592 1474.429321,2497.273193 
	C1515.783936,2497.273193 1556.877197,2497.273193 1599.129883,2497.273193 
	C1570.522705,2676.104980 1541.983276,2854.512939 1513.345825,3033.533447 
	C1472.080566,3033.533447 1430.943237,3033.533447 1389.044678,3033.533447 
	C1391.422485,3018.310547 1393.727295,3003.554443 1396.133545,2987.927002 
z"/>
<path fill="#5ED9F4" opacity="1.000000" stroke="none" 
	d="
M1240.445679,1482.283691 
	C1227.401123,1489.458496 1214.436401,1496.782959 1201.296875,1503.779419 
	C1164.729004,1523.250977 1128.088501,1542.586426 1090.748047,1561.199463 
	C1090.679565,1538.224243 1091.872070,1516.026245 1091.910278,1493.826172 
	C1092.104736,1381.062744 1091.958374,1268.299072 1092.071533,1155.535522 
	C1092.081543,1145.510864 1091.812012,1135.662231 1088.014771,1126.229248 
	C1100.266357,1119.540527 1112.455444,1112.734009 1124.781128,1106.184937 
	C1162.656616,1086.060303 1200.584473,1066.034424 1239.312988,1046.647461 
	C1243.364868,1052.190552 1244.134766,1057.509277 1244.095459,1063.329834 
	C1243.890625,1093.619995 1244.000000,1123.912354 1244.000000,1154.203857 
	C1244.000000,1257.061890 1244.000366,1359.920044 1243.999023,1462.778076 
	C1243.999023,1468.059692 1244.745361,1473.467896 1239.855957,1477.531616 
	C1239.193481,1478.082153 1240.207764,1480.649902 1240.445679,1482.283691 
z"/>
<path fill="#498AF1" opacity="1.000000" stroke="none" 
	d="
M2290.015625,488.271423 
	C2298.064453,483.684113 2306.006592,478.896820 2314.179932,474.543549 
	C2352.244385,454.270325 2390.372559,434.117279 2429.232178,414.629150 
	C2435.137939,425.955383 2433.991699,437.339966 2433.992676,448.573517 
	C2434.004395,572.835754 2434.021484,697.097961 2433.929199,821.360107 
	C2433.925049,826.943054 2432.813965,832.519348 2432.354980,838.109924 
	C2432.063965,841.650574 2430.777100,845.466919 2434.399658,848.248291 
	C2420.153320,856.044617 2405.979736,863.977661 2391.645508,871.608948 
	C2361.158936,887.839600 2330.588867,903.913574 2298.519531,919.956299 
	C2291.772461,917.056213 2294.109863,912.130249 2294.106201,908.205383 
	C2293.978027,776.967529 2293.971680,645.729492 2294.061768,514.491577 
	C2294.067871,505.476624 2294.220703,496.574280 2290.015625,488.271423 
z"/>
<path fill="#57C1F3" opacity="1.000000" stroke="none" 
	d="
M1782.009766,1194.009766 
	C1791.340332,1189.674683 1800.692017,1185.384277 1809.991455,1180.983643 
	C1813.915771,1179.126587 1817.698242,1176.856567 1822.971558,1179.062012 
	C1823.273438,1180.887939 1823.817383,1183.058960 1823.950439,1185.254883 
	C1824.131348,1188.243286 1823.999756,1191.250854 1823.999756,1194.250122 
	C1824.000000,1499.847046 1823.987305,1805.444092 1824.084106,2111.041016 
	C1824.086182,2117.614990 1825.345093,2124.188721 1826.065674,2131.655029 
	C1817.206177,2137.461426 1808.362549,2142.496094 1799.374878,2147.259033 
	C1787.454468,2153.576172 1775.421753,2159.681152 1762.723022,2165.040527 
	C1762.005859,1852.297485 1762.003052,1540.391235 1762.000122,1228.485107 
	C1762.000000,1226.152466 1761.837280,1223.806152 1762.032837,1221.489990 
	C1762.468872,1216.322510 1760.858032,1212.332397 1756.398926,1209.441650 
	C1761.174316,1206.602905 1765.649048,1204.487427 1769.894897,1201.984009 
	C1774.054443,1199.531494 1777.980957,1196.683960 1782.009766,1194.009766 
z"/>
<path fill="#61E6F5" opacity="1.000000" stroke="none" 
	d="
M1704.121826,2196.375977 
	C1684.856567,2206.798828 1665.591309,2217.221924 1646.858521,2227.356689 
	C1645.668091,2226.857666 1645.320312,2226.781494 1645.065430,2226.584961 
	C1644.833740,2226.406250 1644.562378,2226.103516 1644.549316,2225.843506 
	C1644.382446,2222.530518 1644.141113,2219.215332 1644.140869,2215.900879 
	C1644.120605,1901.125244 1644.119507,1586.349609 1644.425293,1270.040283 
	C1648.393066,1266.386719 1652.018677,1264.205566 1655.719238,1262.160400 
	C1663.124390,1258.067627 1670.570679,1254.049072 1678.645264,1249.733643 
	C1686.184570,1246.302246 1693.078613,1243.137085 1700.580078,1240.454102 
	C1704.909546,1245.542358 1703.983521,1251.020874 1703.983887,1256.285522 
	C1704.001831,1564.987427 1703.999512,1873.689453 1704.005005,2182.391357 
	C1704.005005,2187.052979 1704.081177,2191.714355 1704.121826,2196.375977 
z"/>
<path fill="#467AF0" opacity="1.000000" stroke="none" 
	d="
M2553.989990,347.825439 
	C2557.941895,345.426117 2561.788330,342.828156 2565.862549,340.658783 
	C2601.139648,321.874573 2636.454102,303.160248 2671.770508,284.449554 
	C2674.949219,282.765442 2678.218994,281.253387 2683.012207,278.889191 
	C2683.223633,283.574677 2683.514160,287.021088 2683.515137,290.467590 
	C2683.540527,371.117645 2683.534668,451.767670 2683.534668,532.417725 
	C2683.534668,590.405762 2683.360107,648.394958 2683.740479,706.380493 
	C2683.791992,714.248962 2681.275635,718.237000 2674.422363,721.765564 
	C2645.106201,736.858948 2616.100098,752.553589 2586.965332,767.999573 
	C2577.123047,773.217651 2567.234131,778.348511 2556.684082,782.721313 
	C2556.001221,642.787720 2556.023682,503.652130 2555.915039,364.516632 
	C2555.910645,358.952393 2554.659912,353.389160 2553.989990,347.825439 
z"/>
<path fill="#4B93F1" opacity="1.000000" stroke="none" 
	d="
M2289.306641,488.251099 
	C2294.220703,496.574280 2294.067871,505.476624 2294.061768,514.491577 
	C2293.971680,645.729492 2293.978027,776.967529 2294.106201,908.205383 
	C2294.109863,912.130249 2291.772461,917.056213 2297.836426,920.069336 
	C2287.064941,926.692993 2275.523926,933.261719 2263.804199,939.494080 
	C2231.777832,956.524902 2199.676514,973.414062 2166.841797,989.551514 
	C2166.052734,984.412048 2166.003418,980.080505 2166.002930,975.748901 
	C2165.985840,835.129150 2165.973633,694.509399 2165.960449,553.889648 
	C2182.812256,544.706482 2199.604492,535.411499 2216.530518,526.367126 
	C2240.501221,513.558167 2264.570801,500.933929 2289.306641,488.251099 
z"/>
<path fill="#5CD4F4" opacity="1.000000" stroke="none" 
	d="
M1704.823730,2196.220215 
	C1704.081177,2191.714355 1704.005005,2187.052979 1704.005005,2182.391357 
	C1703.999512,1873.689453 1704.001831,1564.987427 1703.983887,1256.285522 
	C1703.983521,1251.020874 1704.909546,1245.542358 1700.979614,1239.906250 
	C1714.943115,1231.049561 1729.066284,1223.132690 1743.317139,1215.452759 
	C1747.352539,1213.278076 1751.760742,1211.795288 1755.997925,1209.995117 
	C1760.858032,1212.332397 1762.468872,1216.322510 1762.032837,1221.489990 
	C1761.837280,1223.806152 1762.000000,1226.152466 1762.000122,1228.485107 
	C1762.003052,1540.391235 1762.005859,1852.297485 1762.013672,2165.148926 
	C1750.985229,2171.990479 1739.963379,2177.908203 1728.915161,2183.776123 
	C1721.137085,2187.907227 1713.323242,2191.970947 1704.823730,2196.220215 
z"/>
<path fill="#60E2F5" opacity="1.000000" stroke="none" 
	d="
M1087.337769,1126.382446 
	C1091.812012,1135.662231 1092.081543,1145.510864 1092.071533,1155.535522 
	C1091.958374,1268.299072 1092.104736,1381.062744 1091.910278,1493.826172 
	C1091.872070,1516.026245 1090.679565,1538.224243 1090.035645,1561.322388 
	C1072.283569,1571.954224 1054.589600,1581.826050 1036.727539,1591.384033 
	C1015.025269,1602.997192 993.181335,1614.345825 970.591980,1625.064453 
	C969.190186,1620.082764 968.077576,1615.845703 968.075073,1611.608154 
	C967.992859,1471.096191 968.016724,1330.584351 968.025024,1190.072388 
	C979.041687,1183.958984 989.971985,1177.683472 1001.091797,1171.763916 
	C1029.569824,1156.603394 1058.132202,1141.601196 1087.337769,1126.382446 
z"/>
<path fill="#4681F1" opacity="1.000000" stroke="none" 
	d="
M2553.276123,347.925171 
	C2554.659912,353.389160 2555.910645,358.952393 2555.915039,364.516632 
	C2556.023682,503.652130 2556.001221,642.787720 2556.000732,782.843140 
	C2544.081299,790.286560 2532.225098,796.926636 2520.232178,803.310425 
	C2492.116943,818.276184 2463.936768,833.119141 2435.091309,848.130127 
	C2430.777100,845.466919 2432.063965,841.650574 2432.354980,838.109924 
	C2432.813965,832.519348 2433.925049,826.943054 2433.929199,821.360107 
	C2434.021484,697.097961 2434.004395,572.835754 2433.992676,448.573517 
	C2433.991699,437.339966 2435.137939,425.955383 2429.947266,414.517578 
	C2445.305176,405.300964 2460.643066,396.793579 2476.112305,388.531921 
	C2501.550781,374.945831 2527.074463,361.518921 2553.276123,347.925171 
z"/>
<path fill="#5BD0F4" opacity="1.000000" stroke="none" 
	d="
M1241.126221,1482.153320 
	C1240.207764,1480.649902 1239.193481,1478.082153 1239.855957,1477.531616 
	C1244.745361,1473.467896 1243.999023,1468.059692 1243.999023,1462.778076 
	C1244.000366,1359.920044 1244.000000,1257.061890 1244.000000,1154.203857 
	C1244.000000,1123.912354 1243.890625,1093.619995 1244.095459,1063.329834 
	C1244.134766,1057.509277 1243.364868,1052.190552 1240.026123,1046.527588 
	C1245.323975,1042.567383 1250.623169,1039.203003 1256.153198,1036.274536 
	C1288.951782,1018.906433 1321.803711,1001.639526 1355.332031,984.950073 
	C1356.501099,987.120239 1356.488770,989.256348 1357.534424,990.138306 
	C1362.274414,994.136414 1362.035645,999.360901 1362.033813,1004.760742 
	C1361.990234,1134.955811 1361.983276,1265.150879 1362.055298,1395.345947 
	C1362.058472,1401.143799 1361.330566,1406.360229 1357.997192,1411.418823 
	C1356.377319,1413.877197 1356.780640,1417.668701 1356.268066,1420.856934 
	C1344.982788,1427.119019 1333.811157,1433.597412 1322.388062,1439.597290 
	C1300.163330,1451.270142 1277.780273,1462.640747 1255.504883,1474.217773 
	C1250.845337,1476.639648 1246.368042,1479.412231 1241.126221,1482.153320 
z"/>
<path fill="#58C2F3" opacity="1.000000" stroke="none" 
	d="
M1456.026489,930.646606 
	C1474.951172,920.410461 1493.835693,910.099426 1512.812256,899.960388 
	C1530.044678,890.753296 1547.377197,881.733337 1565.337158,873.343506 
	C1569.456177,898.532898 1567.799194,923.154175 1567.934204,947.712830 
	C1568.170166,990.665771 1567.987305,1033.620972 1568.002808,1076.575195 
	C1568.030518,1153.825684 1568.075195,1231.076172 1568.112915,1308.326660 
	C1553.630127,1316.268555 1539.231445,1324.369019 1524.644897,1332.115112 
	C1503.016846,1343.600708 1481.255493,1354.834961 1458.739136,1365.537842 
	C1457.284912,1360.666748 1456.083496,1356.434204 1456.080811,1352.200928 
	C1455.991821,1211.682861 1456.017700,1071.164673 1456.026489,930.646606 
z"/>
<path fill="#4D9BF2" opacity="1.000000" stroke="none" 
	d="
M2165.250000,553.986267 
	C2165.973633,694.509399 2165.985840,835.129150 2166.002930,975.748901 
	C2166.003418,980.080505 2166.052734,984.412048 2166.135986,989.742310 
	C2162.798828,992.769775 2159.496094,994.974792 2155.995361,996.799683 
	C2129.885010,1010.410889 2103.704834,1023.889465 2077.616211,1037.542480 
	C2070.121826,1041.464478 2062.855225,1045.822144 2054.779785,1050.101074 
	C2058.477051,911.330994 2054.775391,772.402405 2056.019287,633.496887 
	C2056.073486,627.463501 2056.106934,621.497437 2051.565674,615.871826 
	C2063.233887,608.475403 2075.548340,601.347229 2088.081543,594.627075 
	C2113.504883,580.995544 2139.046631,567.584717 2165.250000,553.986267 
z"/>
<path fill="#56BBF3" opacity="1.000000" stroke="none" 
	d="
M1568.816162,1308.184814 
	C1568.075195,1231.076172 1568.030518,1153.825684 1568.002808,1076.575195 
	C1567.987305,1033.620972 1568.170166,990.665771 1567.934204,947.712830 
	C1567.799194,923.154175 1569.456177,898.532898 1566.013306,873.204102 
	C1581.468872,863.950928 1596.861694,855.440186 1612.385498,847.175720 
	C1632.323120,836.561401 1652.366089,826.144836 1673.138306,816.461914 
	C1673.941895,820.612427 1673.996094,823.944092 1673.996216,827.275696 
	C1674.000488,963.220886 1674.014160,1099.166138 1673.947510,1235.111328 
	C1673.944824,1240.543457 1673.929199,1245.772583 1678.000000,1250.000000 
	C1670.570679,1254.049072 1663.124390,1258.067627 1655.719238,1262.160400 
	C1652.018677,1264.205566 1648.393066,1266.386719 1644.411499,1269.081543 
	C1642.827026,1270.024780 1641.459351,1270.192139 1640.317871,1270.790894 
	C1616.702881,1283.178589 1593.113770,1295.615601 1568.816162,1308.184814 
z"/>
<path fill="#62EBF5" opacity="1.000000" stroke="none" 
	d="
M932.048401,1646.141479 
	C924.268188,1650.560669 916.578979,1655.150024 908.690735,1659.367188 
	C885.221619,1671.913818 861.686646,1684.337769 838.140930,1696.740112 
	C835.356873,1698.206543 832.346436,1699.243286 827.897034,1701.135986 
	C827.897034,1696.144409 827.897095,1692.911621 827.897034,1689.678711 
	C827.896729,1551.207642 827.973999,1412.736450 827.692444,1274.265869 
	C827.676514,1266.419312 830.141296,1262.215820 836.890991,1258.740967 
	C866.758972,1243.364746 896.418945,1227.584351 927.493408,1212.337036 
	C929.888367,1219.542725 931.855713,1226.360352 931.865417,1233.180908 
	C932.061218,1370.834106 932.032288,1508.487915 932.048401,1646.141479 
z"/>
<path fill="#54B4F3" opacity="1.000000" stroke="none" 
	d="
M1678.645264,1249.733643 
	C1673.929199,1245.772583 1673.944824,1240.543457 1673.947510,1235.111328 
	C1674.014160,1099.166138 1674.000488,963.220886 1673.996216,827.275696 
	C1673.996094,823.944092 1673.941895,820.612427 1673.844971,816.281860 
	C1684.168091,809.532349 1694.481812,803.636902 1704.965698,798.060974 
	C1728.026978,785.795532 1751.173950,773.691528 1774.988892,761.313171 
	C1775.127808,769.347290 1774.078735,777.589600 1774.072388,785.832642 
	C1773.969604,917.492920 1773.999756,1049.153320 1774.001587,1180.813599 
	C1774.001709,1183.146729 1773.960938,1185.482422 1774.055420,1187.812256 
	C1774.217773,1191.822266 1776.375000,1193.867432 1781.196289,1193.989014 
	C1777.980957,1196.683960 1774.054443,1199.531494 1769.894897,1201.984009 
	C1765.649048,1204.487427 1761.174316,1206.602905 1756.398926,1209.441650 
	C1751.760742,1211.795288 1747.352539,1213.278076 1743.317139,1215.452759 
	C1729.066284,1223.132690 1714.943115,1231.049561 1700.372070,1239.424316 
	C1693.078613,1243.137085 1686.184570,1246.302246 1678.645264,1249.733643 
z"/>
<path fill="#241917" opacity="1.000000" stroke="none" 
	d="
M2790.883301,2690.797363 
	C2791.456055,2688.325195 2791.817139,2686.704102 2792.296387,2684.551270 
	C2833.453857,2684.551270 2874.588867,2684.551270 2916.651611,2684.551270 
	C2898.197510,2801.074463 2879.829346,2917.056396 2861.374512,3033.583740 
	C2820.280273,3033.583740 2779.423340,3033.583740 2737.366211,3033.583740 
	C2738.411621,3025.764404 2739.291260,3018.024902 2740.498291,3010.336914 
	C2752.425781,2934.359375 2764.407959,2858.390381 2776.374268,2782.418945 
	C2781.140137,2752.162109 2785.906006,2721.905029 2790.883301,2690.797363 
z"/>
<path fill="#59C9F4" opacity="1.000000" stroke="none" 
	d="
M1455.367188,930.779846 
	C1456.017700,1071.164673 1455.991821,1211.682861 1456.080811,1352.200928 
	C1456.083496,1356.434204 1457.284912,1360.666748 1458.062622,1365.790527 
	C1445.436157,1373.735229 1432.795532,1381.020386 1419.881958,1387.784424 
	C1403.752563,1396.232788 1387.364014,1404.185547 1371.163208,1412.500000 
	C1366.530518,1414.877441 1362.160278,1417.766235 1356.968872,1420.638672 
	C1356.780640,1417.668701 1356.377319,1413.877197 1357.997192,1411.418823 
	C1361.330566,1406.360229 1362.058472,1401.143799 1362.055298,1395.345947 
	C1361.983276,1265.150879 1361.990234,1134.955811 1362.033813,1004.760742 
	C1362.035645,999.360901 1362.274414,994.136414 1357.534424,990.138306 
	C1356.488770,989.256348 1356.501099,987.120239 1356.016602,984.795166 
	C1364.923706,979.021729 1373.756104,973.856689 1382.773804,969.038574 
	C1406.709106,956.250122 1430.724365,943.611389 1455.367188,930.779846 
z"/>
<path fill="#4889F1" opacity="1.000000" stroke="none" 
	d="
M1951.995117,1105.995117 
	C1965.507202,1098.702881 1979.019287,1091.410522 1993.261719,1084.980347 
	C1993.994751,1399.309692 1993.997070,1712.776855 1994.000732,2026.244019 
	C1994.000732,2029.242065 1993.432373,2032.398560 1994.192383,2035.191772 
	C1994.893921,2037.770020 1997.027344,2039.958740 1998.530029,2042.319092 
	C1984.104736,2049.691895 1969.677612,2057.061523 1955.260498,2064.450195 
	C1954.701416,2064.736816 1954.237061,2065.208496 1952.487305,2065.449707 
	C1950.910889,2061.735840 1950.174805,2058.148926 1950.328491,2054.600342 
	C1950.599731,2048.340576 1951.924683,2042.104248 1951.926514,2035.857910 
	C1952.010498,1735.385010 1952.000244,1434.912231 1951.998047,1134.439331 
	C1951.998047,1131.108276 1952.866577,1127.441284 1951.770508,1124.515259 
	C1949.380493,1118.135254 1951.275879,1112.143921 1951.995117,1105.995117 
z"/>
<path fill="#457BF0" opacity="1.000000" stroke="none" 
	d="
M1999.218628,2042.200928 
	C1997.027344,2039.958740 1994.893921,2037.770020 1994.192383,2035.191772 
	C1993.432373,2032.398560 1994.000732,2029.242065 1994.000732,2026.244019 
	C1993.997070,1712.776855 1993.994751,1399.309692 1993.981445,1084.900513 
	C1999.503540,1080.561035 2004.896606,1076.904053 2010.603394,1073.829346 
	C2018.322510,1069.670288 2026.282227,1065.958130 2034.851074,1062.040161 
	C2035.669067,1066.016846 2035.867432,1070.007568 2035.867554,1073.998291 
	C2035.881958,1386.398315 2035.881104,1698.798462 2035.881104,2011.198486 
	C2035.881104,2015.169312 2035.880981,2019.140259 2035.880981,2023.119751 
	C2023.577148,2029.605591 2011.742188,2035.844238 1999.218628,2042.200928 
z"/>
<path fill="#4C97F1" opacity="1.000000" stroke="none" 
	d="
M1951.281738,1106.067017 
	C1951.275879,1112.143921 1949.380493,1118.135254 1951.770508,1124.515259 
	C1952.866577,1127.441284 1951.998047,1131.108276 1951.998047,1134.439331 
	C1952.000244,1434.912231 1952.010498,1735.385010 1951.926514,2035.857910 
	C1951.924683,2042.104248 1950.599731,2048.340576 1950.328491,2054.600342 
	C1950.174805,2058.148926 1950.910889,2061.735840 1951.910645,2065.839844 
	C1938.920288,2073.669434 1925.265381,2080.964600 1910.907959,2088.449707 
	C1910.136963,2084.309570 1910.008667,2079.979492 1910.008545,2075.649658 
	C1909.999146,1764.780273 1910.067749,1453.910889 1909.739990,1143.041870 
	C1909.727539,1131.225586 1913.738281,1124.474731 1924.039429,1119.850342 
	C1933.106812,1115.779907 1941.742065,1110.746826 1951.281738,1106.067017 
z"/>
<path fill="#61E6F5" opacity="1.000000" stroke="none" 
	d="
M932.759521,1646.027954 
	C932.032288,1508.487915 932.061218,1370.834106 931.865417,1233.180908 
	C931.855713,1226.360352 929.888367,1219.542725 928.188843,1212.218750 
	C940.567139,1204.551758 953.589111,1197.389893 967.318115,1190.150269 
	C968.016724,1330.584351 967.992859,1471.096191 968.075073,1611.608154 
	C968.077576,1615.845703 969.190186,1620.082764 969.890625,1625.149170 
	C957.820801,1632.623657 945.645691,1639.269043 932.759521,1646.027954 
z"/>
<path fill="#251A18" opacity="1.000000" stroke="none" 
	d="
M2183.250000,3007.025635 
	C2160.041260,3054.800049 2099.857666,3058.754395 2068.897217,3025.178711 
	C2049.230469,3003.850586 2043.685669,2973.176270 2055.754395,2947.306885 
	C2068.225098,2920.576416 2094.937988,2904.932617 2124.530518,2907.030273 
	C2169.867920,2910.243896 2199.261963,2952.634766 2186.821777,2996.920410 
	C2185.924561,3000.114014 2184.687500,3003.212402 2183.250000,3007.025635 
z"/>
<path fill="#251A18" opacity="1.000000" stroke="none" 
	d="
M2845.133301,2643.198242 
	C2795.095215,2623.836426 2785.982666,2558.155762 2827.803955,2526.933105 
	C2849.884033,2510.448730 2874.347412,2509.157227 2898.533447,2520.812988 
	C2922.071777,2532.156006 2933.111328,2552.147217 2934.399170,2578.596436 
	C2936.277100,2617.159668 2899.269043,2658.875732 2845.133301,2643.198242 
z"/>
<path fill="#FEFEFE" opacity="1.000000" stroke="none" 
	d="
M2396.469238,2888.977783 
	C2393.222900,2863.447510 2395.842285,2839.666992 2407.955566,2817.500977 
	C2427.546875,2781.651123 2465.608887,2765.334717 2504.526611,2775.996094 
	C2532.119141,2783.554932 2551.862793,2807.209717 2554.207275,2835.771484 
	C2556.731201,2866.514648 2550.146484,2894.579102 2529.572510,2918.492188 
	C2503.348389,2948.972412 2464.568359,2951.763916 2435.894043,2939.454346 
	C2414.171875,2930.129639 2401.655273,2912.738037 2396.469238,2888.977783 
z"/>
<path fill="#FEFEFE" opacity="1.000000" stroke="none" 
	d="
M1882.064697,2871.806641 
	C1877.599243,2892.647705 1868.856567,2910.350098 1853.971680,2924.589355 
	C1831.953125,2945.653076 1805.716553,2951.953369 1776.498901,2944.698242 
	C1750.794434,2938.315674 1733.571899,2917.776611 1730.605957,2889.213623 
	C1727.118774,2855.630127 1735.212891,2825.020020 1758.321411,2799.489258 
	C1779.426147,2776.172852 1805.784180,2768.388672 1836.185181,2775.393066 
	C1862.866943,2781.540039 1880.772339,2802.056396 1883.845459,2829.221924 
	C1885.422363,2843.161621 1885.149780,2857.143066 1882.064697,2871.806641 
z"/>
</svg>