<svg width="98" height="98" viewBox="0 0 98 98" fill="none" xmlns="http://www.w3.org/2000/svg">
<path d="M67.1183 54.6217L48.7871 36.2905L30.4559 54.6217L35.0547 59.2205L45.5351 48.7401V97.5583H52.039V48.7401L62.5194 59.2205L67.1183 54.6217Z" fill="#04DDF8"/>
<path d="M78.0466 29.5628V29.2675C78.0466 13.1297 64.9169 0 48.7791 0C32.6414 0 19.5117 13.1297 19.5117 29.2675V29.7738C14.695 30.6828 10.2546 32.9957 6.749 36.4218C4.61567 38.4923 2.91922 40.9697 1.75999 43.7073C0.600766 46.4449 0.00230318 49.3872 0 52.3601C0 58.685 2.59911 64.7098 7.3189 69.3249C11.9306 73.8343 18.1576 76.4207 24.4038 76.4207H37.3973V69.9168H24.4038C14.8683 69.9168 6.50389 61.7127 6.50389 52.3601C6.50389 43.7693 13.7476 36.524 22.9947 35.8657L26.0155 35.6504V29.2675C26.0155 23.2302 28.4138 17.4402 32.6828 13.1712C36.9518 8.90219 42.7419 6.50389 48.7791 6.50389C54.8164 6.50389 60.6064 8.90219 64.8754 13.1712C69.1444 17.4402 71.5427 23.2302 71.5427 29.2675V35.7795L74.754 35.8201C84.1993 35.9397 91.0544 42.8958 91.0544 52.3601C91.0544 62.205 83.8078 69.9168 74.5569 69.9168H60.1609V76.4207H74.5569C77.6555 76.4309 80.7222 75.7954 83.5616 74.5547C86.401 73.314 88.9507 71.4954 91.0483 69.2148C95.2464 64.7013 97.5583 58.7157 97.5583 52.3601C97.5583 40.483 89.3707 31.1764 78.0466 29.5628Z" fill="#04DDF8"/>
</svg>
