<svg width="887" height="820" viewBox="0 0 887 820" fill="none" xmlns="http://www.w3.org/2000/svg">
<path fill-rule="evenodd" clip-rule="evenodd" d="M817.892 39.3632C817.892 37.7945 818.723 36.3433 820.077 35.5505L879.727 0.612552C882.672 -1.11277 886.378 1.01154 886.378 4.42528V330.089C886.378 331.658 885.547 333.109 884.193 333.902L824.543 368.84C821.598 370.565 817.892 368.441 817.892 365.027V39.3632ZM71.7796 452.616C71.7796 451.041 72.6181 449.585 73.9805 448.795L150.752 404.246C153.698 402.536 157.388 404.662 157.388 408.068V790.704C157.388 792.279 156.55 793.735 155.187 794.526L78.4159 839.075C75.4702 840.784 71.7796 838.659 71.7796 835.253V452.616ZM441.872 69.4825C441.872 66.0992 438.225 63.9711 435.28 65.6357L2.24466 310.355C0.857652 311.139 0 312.609 0 314.202V380.967C0 384.351 3.647 386.479 6.59255 384.814L439.627 140.095C441.014 139.311 441.872 137.841 441.872 136.248V69.4825ZM763.892 427.72C763.892 424.337 760.246 422.209 757.301 423.873L385.509 633.857C384.121 634.64 383.263 636.11 383.263 637.704V693.771C383.263 697.154 386.909 699.282 389.855 697.618L761.647 487.634C763.034 486.851 763.892 485.381 763.892 483.787V427.72ZM204.144 381.675C204.144 380.084 204.999 378.616 206.382 377.831L738.196 76.1892C741.142 74.5185 744.795 76.6462 744.795 80.0326V348.65C744.795 350.24 743.94 351.708 742.556 352.493L210.742 654.135C207.797 655.806 204.144 653.678 204.144 650.292V381.675Z" fill="url(#paint0_linear_229_1177)"/>
<defs>
<linearGradient id="paint0_linear_229_1177" x1="510.688" y1="59.7186" x2="510.688" y2="579.257" gradientUnits="userSpaceOnUse">
<stop stop-color="#3C8DA1"/>
<stop offset="1" stop-color="#01596C" stop-opacity="0"/>
</linearGradient>
</defs>
</svg>
