<svg width="1440" height="812" viewBox="0 0 1440 812" fill="none" xmlns="http://www.w3.org/2000/svg">
<path opacity="0.3" d="M-1343 1036.93L-97.9771 446.066L808.344 422.712L1083.98 9.34169H1595.53M359.855 1490L1280.19 789.373L1303.55 308.276L1717 261.567V0M1601.32 8.89696L1114.12 21.3526L831.925 417.262L-32.3499 462.414L-1261.91 1058.5M1607.1 8.45194L1144.27 33.3631L855.506 411.813L33.277 478.762L-1180.82 1080.08M1612.89 8.00721L1174.41 45.374L879.087 406.364L98.9042 495.11L-1099.74 1101.65M1618.67 7.56219L1204.55 57.3846L902.669 400.914L164.531 511.458L-1018.65 1123.23M1624.45 7.11745L1234.7 69.3954L926.25 395.465L230.158 527.806L-937.558 1144.8M1630.24 6.67272L1264.84 81.4063L949.831 390.016L295.785 544.154L-856.47 1166.38M1636.02 6.2277L1294.98 93.4168L973.412 384.566L361.412 560.501L-775.382 1187.95M1641.81 5.78297L1325.13 105.428L996.993 379.117L427.039 576.85L-694.293 1209.53M1647.59 5.33823L1355.27 117.439L1020.57 373.668L492.666 593.198L-613.205 1231.1M1653.38 4.89321L1385.42 129.449L1044.16 368.218L558.293 609.545L-532.117 1252.68M1659.16 4.44848L1415.56 141.46L1067.74 362.769L623.92 625.893L-451.028 1274.25M1664.94 4.00346L1445.7 153.471L1091.32 357.32L689.548 642.241L-369.94 1295.83M1670.73 3.55873L1475.85 165.481L1114.9 351.87L755.175 658.589L-288.852 1317.4M1676.51 3.11399L1505.99 177.492L1138.48 346.421L820.802 674.937L-207.763 1338.98M1682.3 2.66897L1536.14 189.503L1162.06 340.972L886.429 691.285L-126.675 1360.55M1688.08 2.22424L1566.28 201.514L1185.64 335.522L952.056 707.633L-45.5866 1382.13M1693.86 1.77951L1596.42 213.525L1209.22 330.073L1017.68 723.981L35.5016 1403.7M1699.65 1.33449L1626.57 225.535L1232.81 324.624L1083.31 740.329L116.59 1425.28M1705.43 0.889753L1656.71 237.546L1256.39 319.175L1148.94 756.677L197.678 1446.85M1711.22 0.444734L1686.86 249.557L1279.97 313.725L1214.56 773.025L278.767 1468.43" stroke="#3C8DA1"/>
</svg>
