<svg xmlns="http://www.w3.org/2000/svg" viewBox="82.55500793457031 93.72604751586914 409.8899841308594 384.0811405181885"> <svg xmlns="http://www.w3.org/2000/svg" viewBox="-0.0000457763671875 -0.000004291534423828125 128.00042724609375 127.99996948242188" fill="none" height="128.00000000000003" width="128.00032552166118" y="163.72604751586914" x="223.49617512979444" preserveAspectRatio="xMinYMin" style="overflow: visible;"><path fill-rule="evenodd" clip-rule="evenodd" d="M41.8959 11.4604C29.506 16.673 19.3569 26.0965 13.2413 38.0664C7.12565 50.0364 5.43698 63.7825 8.47355 76.8767C11.5101 89.9709 19.0766 101.571 29.8364 109.627C40.5961 117.684 53.857 121.678 67.2765 120.906C80.6959 120.133 93.4107 114.643 103.175 105.405C112.939 96.1665 119.124 83.775 120.637 70.4187C122.151 57.0625 118.896 43.6011 111.447 32.4122C110.376 30.8031 110.812 28.6304 112.421 27.5591C114.03 26.4879 116.203 26.9239 117.274 28.5329C125.638 41.0959 129.293 56.2105 127.593 71.207C125.893 86.2035 118.949 100.117 107.986 110.489C97.0225 120.862 82.7463 127.027 67.6788 127.894C52.6113 128.762 37.722 124.276 25.6408 115.231C13.5596 106.185 5.064 93.1603 1.65451 78.458C-1.75498 63.7557 0.14108 48.3215 7.00777 34.8816C13.8745 21.4417 25.2699 10.8609 39.1814 5.00821C53.0928 -0.844524 68.625 -1.59261 83.0345 2.8961C84.8801 3.471 85.9101 5.43314 85.3352 7.27867C84.7603 9.1242 82.7982 10.1542 80.9526 9.57934C68.1192 5.58159 54.2858 6.24785 41.8959 11.4604ZM105 16.25C105 18.3211 103.321 20 101.25 20C99.1789 20 97.5 18.3211 97.5 16.25C97.5 14.1789 99.1789 12.5 101.25 12.5C103.321 12.5 105 14.1789 105 16.25ZM63.5864 42C62.5997 42 61.7464 42.3506 61.0531 43.0493C60.3464 43.7466 60 44.596 60 45.5933C60 46.5907 60.3464 47.4387 61.0531 48.1373C61.7464 48.836 62.5997 49.1853 63.5864 49.1853C64.5864 49.1853 65.44 48.836 66.1333 48.1373C66.8266 47.4387 67.1864 46.5907 67.1864 45.5933C67.1864 44.596 66.8266 43.7466 66.1333 43.0493C65.44 42.3506 64.5864 42 63.5864 42ZM63.5864 51.5799C61.5997 51.5799 60 53.1893 60 55.1719V81.5159C60 83.4986 61.5997 85.1079 63.5864 85.1079C65.5731 85.1079 67.1864 83.4986 67.1864 81.5159V55.1719C67.1864 53.1893 65.5731 51.5799 63.5864 51.5799Z" fill="url(#paint0_linear_454_13213)" style="fill: url(#paint0_linear_454_13213);"></path><linearGradient id="paint0_linear_454_13213" x1="104" y1="12.5" x2="32" y2="117.5" gradientUnits="userSpaceOnUse" style=""><stop stop-color="#B382E8"></stop><stop offset="0.9375" stop-color="#5D65E6"></stop></linearGradient></svg> <svg y="398.12718772888184" viewBox="1.2000000476837158 1.0800000429153442 226.54000854492188 9.680000305175781" x="174.22999572753906" height="9.680000305175781" width="226.54000854492188" style="overflow: visible;"><g fill="#ffffff" fill-opacity="0.6" style=""><path d="M5.12 10.76L5.12 10.76Q3.97 10.76 3.08 10.34Q2.20 9.91 1.70 9.16Q1.20 8.40 1.20 7.43L1.20 7.43L1.20 1.82Q1.20 1.55 1.38 1.37Q1.56 1.20 1.82 1.20L1.82 1.20Q2.10 1.20 2.27 1.37Q2.45 1.55 2.45 1.82L2.45 1.82L2.45 7.43Q2.45 8.08 2.79 8.57Q3.13 9.07 3.74 9.35Q4.34 9.64 5.12 9.64L5.12 9.64Q5.88 9.64 6.46 9.35Q7.04 9.07 7.37 8.57Q7.70 8.08 7.70 7.43L7.70 7.43L7.70 1.82Q7.70 1.55 7.88 1.37Q8.06 1.20 8.33 1.20L8.33 1.20Q8.60 1.20 8.77 1.37Q8.94 1.55 8.94 1.82L8.94 1.82L8.94 7.43Q8.94 8.40 8.45 9.16Q7.97 9.91 7.10 10.34Q6.24 10.76 5.12 10.76ZM13.87 10.57L13.87 10.57Q13.61 10.57 13.43 10.39Q13.26 10.21 13.26 9.95L13.26 9.95L13.26 1.82Q13.26 1.55 13.43 1.37Q13.61 1.20 13.87 1.20L13.87 1.20Q14.16 1.20 14.35 1.43L14.35 1.43L19.58 8.39L19.58 1.82Q19.58 1.55 19.76 1.37Q19.94 1.20 20.21 1.20L20.21 1.20Q20.48 1.20 20.65 1.37Q20.82 1.55 20.82 1.82L20.82 1.82L20.82 9.95Q20.82 10.21 20.65 10.39Q20.48 10.57 20.21 10.57L20.21 10.57Q20.09 10.57 19.95 10.52Q19.81 10.46 19.73 10.36L19.73 10.36L14.50 3.40L14.50 9.95Q14.50 10.21 14.32 10.39Q14.15 10.57 13.87 10.57ZM27.94 10.57L25.76 10.57Q25.50 10.57 25.32 10.39Q25.14 10.21 25.14 9.95L25.14 9.95L25.14 1.82Q25.14 1.55 25.32 1.37Q25.50 1.20 25.76 1.20L25.76 1.20L27.94 1.20Q28.97 1.20 29.81 1.54Q30.66 1.88 31.28 2.51Q31.91 3.14 32.24 4.00Q32.58 4.85 32.58 5.88L32.58 5.88Q32.58 6.91 32.24 7.77Q31.91 8.63 31.28 9.26Q30.66 9.89 29.81 10.23Q28.97 10.57 27.94 10.57L27.94 10.57ZM26.39 2.30L26.39 9.47L27.94 9.47Q28.94 9.47 29.72 9.01Q30.49 8.54 30.94 7.73Q31.38 6.92 31.38 5.88L31.38 5.88Q31.38 4.82 30.94 4.02Q30.49 3.22 29.72 2.76Q28.94 2.30 27.94 2.30L27.94 2.30L26.39 2.30ZM42.50 10.57L37.08 10.57Q36.82 10.57 36.64 10.39Q36.46 10.21 36.46 9.95L36.46 9.95L36.46 1.82Q36.46 1.55 36.64 1.37Q36.82 1.20 37.08 1.20L37.08 1.20L42.50 1.20Q42.78 1.20 42.95 1.36Q43.12 1.52 43.12 1.79L43.12 1.79Q43.12 2.04 42.95 2.20Q42.78 2.35 42.50 2.35L42.50 2.35L37.70 2.35L37.70 5.27L41.15 5.27Q41.42 5.27 41.59 5.43Q41.76 5.59 41.76 5.84L41.76 5.84Q41.76 6.10 41.59 6.26Q41.42 6.42 41.15 6.42L41.15 6.42L37.70 6.42L37.70 9.42L42.50 9.42Q42.78 9.42 42.95 9.58Q43.12 9.73 43.12 9.98L43.12 9.98Q43.12 10.25 42.95 10.41Q42.78 10.57 42.50 10.57L42.50 10.57ZM47.40 10.57L47.40 10.57Q47.14 10.57 46.96 10.39Q46.78 10.21 46.78 9.95L46.78 9.95L46.78 1.82Q46.78 1.55 46.96 1.37Q47.14 1.20 47.40 1.20L47.40 1.20L49.56 1.20Q50.46 1.20 51.16 1.58Q51.85 1.96 52.24 2.62Q52.63 3.28 52.63 4.15L52.63 4.15Q52.63 4.97 52.24 5.60Q51.85 6.24 51.16 6.60Q50.46 6.96 49.56 6.96L49.56 6.96L48.02 6.96L48.02 9.95Q48.02 10.21 47.85 10.39Q47.68 10.57 47.40 10.57ZM52.38 10.57L52.38 10.57Q52.21 10.57 52.07 10.50Q51.94 10.43 51.84 10.27L51.84 10.27L49.68 6.79L50.89 6.44L52.86 9.61Q53.08 9.96 52.92 10.27Q52.76 10.57 52.38 10.57ZM48.02 2.35L48.02 5.81L49.56 5.81Q50.11 5.81 50.53 5.60Q50.95 5.39 51.19 5.01Q51.43 4.63 51.43 4.15L51.43 4.15Q51.43 3.62 51.19 3.22Q50.95 2.81 50.53 2.58Q50.11 2.35 49.56 2.35L49.56 2.35L48.02 2.35ZM59.26 10.69L59.26 10.69Q58.49 10.69 57.79 10.45Q57.10 10.21 56.58 9.78Q56.06 9.35 55.82 8.78L55.82 8.78Q55.70 8.53 55.83 8.32Q55.96 8.10 56.26 8.04L56.26 8.04Q56.47 7.99 56.68 8.11Q56.89 8.22 57.00 8.45L57.00 8.45Q57.14 8.75 57.47 9Q57.80 9.25 58.27 9.41Q58.74 9.56 59.26 9.56L59.26 9.56Q59.83 9.56 60.32 9.38Q60.80 9.20 61.10 8.86Q61.40 8.52 61.40 8.02L61.40 8.02Q61.40 7.38 60.91 6.88Q60.41 6.37 59.27 6.25L59.27 6.25Q57.78 6.11 56.93 5.38Q56.08 4.64 56.08 3.56L56.08 3.56Q56.08 2.77 56.52 2.22Q56.96 1.67 57.73 1.38Q58.49 1.09 59.42 1.09L59.42 1.09Q60.16 1.09 60.70 1.30Q61.25 1.50 61.66 1.86Q62.06 2.22 62.36 2.71L62.36 2.71Q62.53 2.98 62.50 3.21Q62.47 3.44 62.27 3.58L62.27 3.58Q62.04 3.72 61.78 3.64Q61.51 3.55 61.38 3.32L61.38 3.32Q61.19 2.98 60.91 2.74Q60.64 2.50 60.26 2.36Q59.89 2.22 59.39 2.22L59.39 2.22Q58.50 2.21 57.90 2.55Q57.30 2.89 57.30 3.60L57.30 3.60Q57.30 3.96 57.49 4.29Q57.67 4.62 58.17 4.86Q58.67 5.10 59.60 5.20L59.60 5.20Q61.03 5.34 61.83 6.07Q62.63 6.79 62.63 7.98L62.63 7.98Q62.63 8.66 62.35 9.17Q62.06 9.67 61.59 10.01Q61.12 10.36 60.51 10.52Q59.90 10.69 59.26 10.69ZM68.75 10.57L68.75 10.57Q68.48 10.57 68.30 10.39Q68.12 10.21 68.12 9.95L68.12 9.95L68.12 1.20L69.37 1.20L69.37 9.95Q69.37 10.21 69.19 10.39Q69.01 10.57 68.75 10.57ZM71.95 2.35L65.53 2.35Q65.28 2.35 65.12 2.19Q64.96 2.03 64.96 1.78L64.96 1.78Q64.96 1.52 65.12 1.36Q65.28 1.20 65.53 1.20L65.53 1.20L71.95 1.20Q72.20 1.20 72.37 1.36Q72.53 1.52 72.53 1.78L72.53 1.78Q72.53 2.03 72.37 2.19Q72.20 2.35 71.95 2.35L71.95 2.35ZM74.50 10.57L74.50 10.57Q74.16 10.57 73.98 10.28Q73.80 10.00 73.94 9.67L73.94 9.67L77.32 1.62Q77.50 1.20 77.90 1.20L77.90 1.20Q78.34 1.20 78.49 1.62L78.49 1.62L81.88 9.70Q82.01 10.03 81.83 10.30Q81.66 10.57 81.31 10.57L81.31 10.57Q81.13 10.57 80.97 10.47Q80.81 10.37 80.74 10.19L80.74 10.19L77.76 2.80L78.10 2.80L75.07 10.19Q74.99 10.38 74.83 10.48Q74.66 10.57 74.50 10.57ZM80.80 8.51L75.13 8.51L75.61 7.48L80.32 7.48L80.80 8.51ZM85.84 10.57L85.84 10.57Q85.57 10.57 85.40 10.39Q85.22 10.21 85.22 9.95L85.22 9.95L85.22 1.82Q85.22 1.55 85.40 1.37Q85.57 1.20 85.84 1.20L85.84 1.20Q86.12 1.20 86.32 1.43L86.32 1.43L91.55 8.39L91.55 1.82Q91.55 1.55 91.73 1.37Q91.91 1.20 92.17 1.20L92.17 1.20Q92.45 1.20 92.62 1.37Q92.78 1.55 92.78 1.82L92.78 1.82L92.78 9.95Q92.78 10.21 92.62 10.39Q92.45 10.57 92.17 10.57L92.17 10.57Q92.05 10.57 91.91 10.52Q91.78 10.46 91.69 10.36L91.69 10.36L86.46 3.40L86.46 9.95Q86.46 10.21 86.29 10.39Q86.11 10.57 85.84 10.57ZM99.90 10.57L97.73 10.57Q97.46 10.57 97.28 10.39Q97.10 10.21 97.10 9.95L97.10 9.95L97.10 1.82Q97.10 1.55 97.28 1.37Q97.46 1.20 97.73 1.20L97.73 1.20L99.90 1.20Q100.93 1.20 101.78 1.54Q102.62 1.88 103.25 2.51Q103.87 3.14 104.21 4.00Q104.54 4.85 104.54 5.88L104.54 5.88Q104.54 6.91 104.21 7.77Q103.87 8.63 103.25 9.26Q102.62 9.89 101.78 10.23Q100.93 10.57 99.90 10.57L99.90 10.57ZM98.35 2.30L98.35 9.47L99.90 9.47Q100.91 9.47 101.68 9.01Q102.46 8.54 102.90 7.73Q103.34 6.92 103.34 5.88L103.34 5.88Q103.34 4.82 102.90 4.02Q102.46 3.22 101.68 2.76Q100.91 2.30 99.90 2.30L99.90 2.30L98.35 2.30ZM116.66 10.57L116.66 10.57Q116.41 10.57 116.23 10.39Q116.05 10.21 116.05 9.95L116.05 9.95L116.05 7.15L112.85 2.17Q112.69 1.92 112.73 1.70Q112.76 1.48 112.94 1.34Q113.11 1.20 113.34 1.20L113.34 1.20Q113.54 1.20 113.66 1.29Q113.78 1.38 113.89 1.55L113.89 1.55L116.94 6.38L116.46 6.38L119.56 1.50Q119.65 1.36 119.78 1.28Q119.92 1.20 120.11 1.20L120.11 1.20Q120.32 1.20 120.47 1.35Q120.61 1.50 120.64 1.72Q120.66 1.94 120.52 2.17L120.52 2.17L117.29 7.15L117.29 9.95Q117.29 10.21 117.11 10.39Q116.93 10.57 116.66 10.57ZM127.55 10.69L127.55 10.69Q126.49 10.69 125.62 10.34Q124.74 9.98 124.11 9.34Q123.48 8.70 123.13 7.82Q122.78 6.94 122.78 5.88L122.78 5.88Q122.78 4.82 123.13 3.95Q123.48 3.07 124.11 2.43Q124.74 1.79 125.62 1.43Q126.49 1.08 127.55 1.08L127.55 1.08Q128.60 1.08 129.47 1.43Q130.34 1.79 130.98 2.43Q131.62 3.07 131.96 3.95Q132.31 4.82 132.31 5.88L132.31 5.88Q132.31 6.94 131.96 7.82Q131.62 8.70 130.98 9.34Q130.34 9.98 129.47 10.34Q128.60 10.69 127.55 10.69ZM127.55 9.56L127.55 9.56Q128.33 9.56 128.98 9.28Q129.64 9 130.12 8.50Q130.60 8.00 130.85 7.33Q131.11 6.66 131.11 5.88L131.11 5.88Q131.11 5.10 130.85 4.43Q130.60 3.76 130.12 3.26Q129.64 2.76 128.98 2.48Q128.33 2.21 127.55 2.21L127.55 2.21Q126.77 2.21 126.11 2.48Q125.46 2.76 124.99 3.26Q124.51 3.76 124.25 4.43Q123.98 5.10 123.98 5.88L123.98 5.88Q123.98 6.66 124.25 7.33Q124.51 8.00 124.99 8.50Q125.46 9 126.11 9.28Q126.77 9.56 127.55 9.56ZM140.11 10.76L140.11 10.76Q138.96 10.76 138.07 10.34Q137.18 9.91 136.69 9.16Q136.19 8.40 136.19 7.43L136.19 7.43L136.19 1.82Q136.19 1.55 136.37 1.37Q136.55 1.20 136.81 1.20L136.81 1.20Q137.09 1.20 137.26 1.37Q137.44 1.55 137.44 1.82L137.44 1.82L137.44 7.43Q137.44 8.08 137.78 8.57Q138.12 9.07 138.73 9.35Q139.33 9.64 140.11 9.64L140.11 9.64Q140.87 9.64 141.45 9.35Q142.03 9.07 142.36 8.57Q142.69 8.08 142.69 7.43L142.69 7.43L142.69 1.82Q142.69 1.55 142.87 1.37Q143.05 1.20 143.32 1.20L143.32 1.20Q143.59 1.20 143.76 1.37Q143.93 1.55 143.93 1.82L143.93 1.82L143.93 7.43Q143.93 8.40 143.44 9.16Q142.96 9.91 142.09 10.34Q141.23 10.76 140.11 10.76ZM148.87 10.57L148.87 10.57Q148.61 10.57 148.43 10.39Q148.25 10.21 148.25 9.95L148.25 9.95L148.25 1.82Q148.25 1.55 148.43 1.37Q148.61 1.20 148.87 1.20L148.87 1.20L151.03 1.20Q151.93 1.20 152.63 1.58Q153.32 1.96 153.71 2.62Q154.10 3.28 154.10 4.15L154.10 4.15Q154.10 4.97 153.71 5.60Q153.32 6.24 152.63 6.60Q151.93 6.96 151.03 6.96L151.03 6.96L149.50 6.96L149.50 9.95Q149.50 10.21 149.32 10.39Q149.15 10.57 148.87 10.57ZM153.85 10.57L153.85 10.57Q153.68 10.57 153.55 10.50Q153.41 10.43 153.31 10.27L153.31 10.27L151.15 6.79L152.36 6.44L154.33 9.61Q154.55 9.96 154.39 10.27Q154.24 10.57 153.85 10.57ZM149.50 2.35L149.50 5.81L151.03 5.81Q151.58 5.81 152.00 5.60Q152.42 5.39 152.66 5.01Q152.90 4.63 152.90 4.15L152.90 4.15Q152.90 3.62 152.66 3.22Q152.42 2.81 152.00 2.58Q151.58 2.35 151.03 2.35L151.03 2.35L149.50 2.35ZM163.81 10.57L163.81 10.57Q163.55 10.57 163.37 10.39Q163.19 10.21 163.19 9.95L163.19 9.95L163.19 1.82Q163.19 1.55 163.37 1.37Q163.55 1.20 163.81 1.20L163.81 1.20L166.21 1.20Q167.11 1.20 167.81 1.60Q168.50 1.99 168.89 2.69Q169.28 3.40 169.28 4.31L169.28 4.31Q169.28 5.18 168.89 5.87Q168.50 6.55 167.81 6.94Q167.11 7.32 166.21 7.32L166.21 7.32L164.44 7.32L164.44 9.95Q164.44 10.21 164.26 10.39Q164.09 10.57 163.81 10.57ZM164.44 2.35L164.44 6.17L166.21 6.17Q166.76 6.17 167.18 5.93Q167.60 5.69 167.84 5.27Q168.08 4.85 168.08 4.31L168.08 4.31Q168.08 3.73 167.84 3.29Q167.60 2.86 167.18 2.60Q166.76 2.35 166.21 2.35L166.21 2.35L164.44 2.35ZM178.16 10.57L173.20 10.57Q172.93 10.57 172.76 10.39Q172.58 10.21 172.58 9.95L172.58 9.95L172.58 1.82Q172.58 1.56 172.76 1.38Q172.94 1.20 173.20 1.20L173.20 1.20Q173.46 1.20 173.64 1.38Q173.82 1.56 173.82 1.82L173.82 1.82L173.82 9.32L178.16 9.32Q178.43 9.32 178.61 9.50Q178.79 9.68 178.79 9.95L178.79 9.95Q178.79 10.21 178.61 10.39Q178.43 10.57 178.16 10.57L178.16 10.57ZM181.84 10.57L181.84 10.57Q181.50 10.57 181.32 10.28Q181.14 10.00 181.28 9.67L181.28 9.67L184.66 1.62Q184.84 1.20 185.24 1.20L185.24 1.20Q185.68 1.20 185.83 1.62L185.83 1.62L189.22 9.70Q189.35 10.03 189.17 10.30Q189.00 10.57 188.65 10.57L188.65 10.57Q188.47 10.57 188.31 10.47Q188.15 10.37 188.08 10.19L188.08 10.19L185.10 2.80L185.44 2.80L182.41 10.19Q182.33 10.38 182.17 10.48Q182.00 10.57 181.84 10.57ZM188.14 8.51L182.47 8.51L182.95 7.48L187.66 7.48L188.14 8.51ZM194.41 10.57L194.41 10.57Q194.16 10.57 193.98 10.39Q193.80 10.21 193.80 9.95L193.80 9.95L193.80 7.15L190.60 2.17Q190.44 1.92 190.48 1.70Q190.51 1.48 190.69 1.34Q190.86 1.20 191.09 1.20L191.09 1.20Q191.29 1.20 191.41 1.29Q191.53 1.38 191.64 1.55L191.64 1.55L194.69 6.38L194.21 6.38L197.30 1.50Q197.40 1.36 197.53 1.28Q197.66 1.20 197.86 1.20L197.86 1.20Q198.07 1.20 198.22 1.35Q198.36 1.50 198.38 1.72Q198.41 1.94 198.26 2.17L198.26 2.17L195.04 7.15L195.04 9.95Q195.04 10.21 194.86 10.39Q194.68 10.57 194.41 10.57ZM207.61 10.57L202.19 10.57Q201.92 10.57 201.74 10.39Q201.56 10.21 201.56 9.95L201.56 9.95L201.56 1.82Q201.56 1.55 201.74 1.37Q201.92 1.20 202.19 1.20L202.19 1.20L207.61 1.20Q207.89 1.20 208.06 1.36Q208.22 1.52 208.22 1.79L208.22 1.79Q208.22 2.04 208.06 2.20Q207.89 2.35 207.61 2.35L207.61 2.35L202.81 2.35L202.81 5.27L206.26 5.27Q206.53 5.27 206.70 5.43Q206.87 5.59 206.87 5.84L206.87 5.84Q206.87 6.10 206.70 6.26Q206.53 6.42 206.26 6.42L206.26 6.42L202.81 6.42L202.81 9.42L207.61 9.42Q207.89 9.42 208.06 9.58Q208.22 9.73 208.22 9.98L208.22 9.98Q208.22 10.25 208.06 10.41Q207.89 10.57 207.61 10.57L207.61 10.57ZM212.51 10.57L212.51 10.57Q212.24 10.57 212.06 10.39Q211.88 10.21 211.88 9.95L211.88 9.95L211.88 1.82Q211.88 1.55 212.06 1.37Q212.24 1.20 212.51 1.20L212.51 1.20L214.67 1.20Q215.57 1.20 216.26 1.58Q216.96 1.96 217.35 2.62Q217.74 3.28 217.74 4.15L217.74 4.15Q217.74 4.97 217.35 5.60Q216.96 6.24 216.26 6.60Q215.57 6.96 214.67 6.96L214.67 6.96L213.13 6.96L213.13 9.95Q213.13 10.21 212.96 10.39Q212.78 10.57 212.51 10.57ZM217.49 10.57L217.49 10.57Q217.32 10.57 217.18 10.50Q217.04 10.43 216.95 10.27L216.95 10.27L214.79 6.79L216.00 6.44L217.97 9.61Q218.18 9.96 218.03 10.27Q217.87 10.57 217.49 10.57ZM213.13 2.35L213.13 5.81L214.67 5.81Q215.22 5.81 215.64 5.60Q216.06 5.39 216.30 5.01Q216.54 4.63 216.54 4.15L216.54 4.15Q216.54 3.62 216.30 3.22Q216.06 2.81 215.64 2.58Q215.22 2.35 214.67 2.35L214.67 2.35L213.13 2.35ZM224.36 10.69L224.36 10.69Q223.60 10.69 222.90 10.45Q222.20 10.21 221.69 9.78Q221.17 9.35 220.93 8.78L220.93 8.78Q220.81 8.53 220.94 8.32Q221.06 8.10 221.36 8.04L221.36 8.04Q221.58 7.99 221.79 8.11Q222.00 8.22 222.11 8.45L222.11 8.45Q222.25 8.75 222.58 9Q222.91 9.25 223.38 9.41Q223.85 9.56 224.36 9.56L224.36 9.56Q224.94 9.56 225.43 9.38Q225.91 9.20 226.21 8.86Q226.51 8.52 226.51 8.02L226.51 8.02Q226.51 7.38 226.01 6.88Q225.52 6.37 224.38 6.25L224.38 6.25Q222.89 6.11 222.04 5.38Q221.18 4.64 221.18 3.56L221.18 3.56Q221.18 2.77 221.63 2.22Q222.07 1.67 222.83 1.38Q223.60 1.09 224.53 1.09L224.53 1.09Q225.26 1.09 225.81 1.30Q226.36 1.50 226.76 1.86Q227.17 2.22 227.47 2.71L227.47 2.71Q227.64 2.98 227.61 3.21Q227.58 3.44 227.38 3.58L227.38 3.58Q227.15 3.72 226.88 3.64Q226.62 3.55 226.49 3.32L226.49 3.32Q226.30 2.98 226.02 2.74Q225.74 2.50 225.37 2.36Q225.00 2.22 224.50 2.22L224.50 2.22Q223.61 2.21 223.01 2.55Q222.41 2.89 222.41 3.60L222.41 3.60Q222.41 3.96 222.59 4.29Q222.78 4.62 223.28 4.86Q223.78 5.10 224.71 5.20L224.71 5.20Q226.14 5.34 226.94 6.07Q227.74 6.79 227.74 7.98L227.74 7.98Q227.74 8.66 227.45 9.17Q227.17 9.67 226.70 10.01Q226.22 10.36 225.62 10.52Q225.01 10.69 224.36 10.69Z" transform="translate(0, 0)"></path></g></svg> <svg y="320.85718727111816" viewBox="5.199999809265137 5.199999809265137 269.8899841308594 53.09000015258789" x="152.5550079345703" height="53.09000015258789" width="269.8899841308594" style="overflow: visible;"><g fill="#ffffff" fill-opacity="1" style=""><path d="M7.90 45.81L7.90 45.81Q6.76 45.81 5.98 45.03Q5.20 44.25 5.20 43.11L5.20 43.11L5.20 7.90Q5.20 6.71 5.98 5.95Q6.76 5.20 7.90 5.20L7.90 5.20Q9.10 5.20 9.85 5.95Q10.61 6.71 10.61 7.90L10.61 7.90L10.61 43.11Q10.61 44.25 9.85 45.03Q9.10 45.81 7.90 45.81ZM57.82 45.86L57.82 45.86Q56.68 45.86 55.93 45.11Q55.17 44.36 55.17 43.21L55.17 43.21L55.17 28.34Q55.17 25.06 53.56 23.48Q51.95 21.89 49.35 21.89L49.35 21.89Q46.64 21.89 44.90 23.76Q43.16 25.64 43.16 28.55L43.16 28.55L38.84 28.55Q38.84 25.17 40.30 22.59Q41.76 20.02 44.38 18.56Q47.01 17.11 50.39 17.11L50.39 17.11Q53.35 17.11 55.64 18.41Q57.93 19.71 59.20 22.23Q60.48 24.75 60.48 28.34L60.48 28.34L60.48 43.21Q60.48 44.36 59.75 45.11Q59.02 45.86 57.82 45.86ZM23.14 45.86L23.14 45.86Q22.00 45.86 21.24 45.11Q20.49 44.36 20.49 43.21L20.49 43.21L20.49 20.07Q20.49 18.88 21.24 18.15Q22.00 17.42 23.14 17.42L23.14 17.42Q24.34 17.42 25.06 18.15Q25.79 18.88 25.79 20.07L25.79 20.07L25.79 43.21Q25.79 44.36 25.06 45.11Q24.34 45.86 23.14 45.86ZM40.51 45.86L40.51 45.86Q39.36 45.86 38.61 45.11Q37.86 44.36 37.86 43.21L37.86 43.21L37.86 28.34Q37.86 25.06 36.24 23.48Q34.63 21.89 32.03 21.89L32.03 21.89Q29.33 21.89 27.56 23.76Q25.79 25.64 25.79 28.55L25.79 28.55L22.52 28.55Q22.52 25.17 23.87 22.59Q25.22 20.02 27.61 18.56Q30.00 17.11 33.07 17.11L33.07 17.11Q36.04 17.11 38.32 18.41Q40.61 19.71 41.89 22.23Q43.16 24.75 43.16 28.34L43.16 28.34L43.16 43.21Q43.16 44.36 42.43 45.11Q41.70 45.86 40.51 45.86ZM106.60 45.86L106.60 45.86Q105.46 45.86 104.70 45.11Q103.95 44.36 103.95 43.21L103.95 43.21L103.95 28.34Q103.95 25.06 102.34 23.48Q100.72 21.89 98.12 21.89L98.12 21.89Q95.42 21.89 93.68 23.76Q91.94 25.64 91.94 28.55L91.94 28.55L87.62 28.55Q87.62 25.17 89.08 22.59Q90.53 20.02 93.16 18.56Q95.78 17.11 99.16 17.11L99.16 17.11Q102.13 17.11 104.42 18.41Q106.70 19.71 107.98 22.23Q109.25 24.75 109.25 28.34L109.25 28.34L109.25 43.21Q109.25 44.36 108.52 45.11Q107.80 45.86 106.60 45.86ZM71.92 45.86L71.92 45.86Q70.77 45.86 70.02 45.11Q69.26 44.36 69.26 43.21L69.26 43.21L69.26 20.07Q69.26 18.88 70.02 18.15Q70.77 17.42 71.92 17.42L71.92 17.42Q73.11 17.42 73.84 18.15Q74.57 18.88 74.57 20.07L74.57 20.07L74.57 43.21Q74.57 44.36 73.84 45.11Q73.11 45.86 71.92 45.86ZM89.28 45.86L89.28 45.86Q88.14 45.86 87.39 45.11Q86.63 44.36 86.63 43.21L86.63 43.21L86.63 28.34Q86.63 25.06 85.02 23.48Q83.41 21.89 80.81 21.89L80.81 21.89Q78.10 21.89 76.34 23.76Q74.57 25.64 74.57 28.55L74.57 28.55L71.29 28.55Q71.29 25.17 72.64 22.59Q74.00 20.02 76.39 18.56Q78.78 17.11 81.85 17.11L81.85 17.11Q84.81 17.11 87.10 18.41Q89.39 19.71 90.66 22.23Q91.94 24.75 91.94 28.34L91.94 28.34L91.94 43.21Q91.94 44.36 91.21 45.11Q90.48 45.86 89.28 45.86ZM131.40 46.02L131.40 46.02Q127.09 46.02 123.73 44.17Q120.38 42.33 118.48 39.08Q116.58 35.83 116.58 31.62L116.58 31.62Q116.58 27.35 118.38 24.10Q120.17 20.85 123.34 19.01Q126.52 17.16 130.62 17.16L130.62 17.16Q134.68 17.16 137.59 18.95Q140.50 20.75 142.04 23.89Q143.57 27.04 143.57 31.15L143.57 31.15Q143.57 32.14 142.90 32.79Q142.22 33.44 141.18 33.44L141.18 33.44L120.22 33.44L120.22 29.28L141.02 29.28L138.89 30.73Q138.84 28.13 137.85 26.08Q136.86 24.02 135.04 22.83Q133.22 21.63 130.62 21.63L130.62 21.63Q127.66 21.63 125.55 22.93Q123.45 24.23 122.36 26.49Q121.26 28.76 121.26 31.62L121.26 31.62Q121.26 34.48 122.56 36.71Q123.86 38.95 126.15 40.25Q128.44 41.55 131.40 41.55L131.40 41.55Q133.02 41.55 134.71 40.95Q136.40 40.35 137.44 39.57L137.44 39.57Q138.22 39.00 139.13 38.97Q140.04 38.95 140.71 39.52L140.71 39.52Q141.60 40.30 141.65 41.24Q141.70 42.17 140.82 42.85L140.82 42.85Q139.05 44.25 136.42 45.14Q133.80 46.02 131.40 46.02ZM155.53 28.03L152.88 28.03Q152.88 24.91 154.41 22.44Q155.95 19.97 158.55 18.51Q161.15 17.06 164.27 17.06L164.27 17.06Q167.39 17.06 168.92 18.07Q170.46 19.08 170.09 20.49L170.09 20.49Q169.94 21.22 169.49 21.61Q169.05 22.00 168.48 22.10Q167.91 22.20 167.23 22.05L167.23 22.05Q163.90 21.37 161.25 21.94Q158.60 22.52 157.07 24.08Q155.53 25.64 155.53 28.03L155.53 28.03ZM152.93 45.81L152.93 45.81Q151.68 45.81 151.01 45.16Q150.33 44.51 150.33 43.21L150.33 43.21L150.33 19.97Q150.33 18.72 151.01 18.04Q151.68 17.37 152.93 17.37L152.93 17.37Q154.23 17.37 154.88 18.02Q155.53 18.67 155.53 19.97L155.53 19.97L155.53 43.21Q155.53 44.46 154.88 45.14Q154.23 45.81 152.93 45.81ZM185.95 46.02L185.95 46.02Q182.31 46.02 179.22 44.90Q176.12 43.78 174.41 42.07L174.41 42.07Q173.63 41.24 173.76 40.17Q173.89 39.10 174.77 38.43L174.77 38.43Q175.81 37.60 176.83 37.73Q177.84 37.86 178.57 38.64L178.57 38.64Q179.45 39.62 181.40 40.48Q183.35 41.34 185.74 41.34L185.74 41.34Q188.76 41.34 190.35 40.35Q191.93 39.36 191.98 37.80L191.98 37.80Q192.04 36.24 190.50 35.10Q188.97 33.96 184.91 33.23L184.91 33.23Q179.66 32.19 177.29 30.11Q174.93 28.03 174.93 25.01L174.93 25.01Q174.93 22.36 176.49 20.62Q178.05 18.88 180.49 18.02Q182.94 17.16 185.59 17.16L185.59 17.16Q189.02 17.16 191.67 18.25Q194.32 19.34 195.88 21.27L195.88 21.27Q196.61 22.10 196.56 23.01Q196.51 23.92 195.68 24.54L195.68 24.54Q194.84 25.12 193.70 24.91Q192.56 24.70 191.78 23.97L191.78 23.97Q190.48 22.72 188.97 22.26Q187.46 21.79 185.48 21.79L185.48 21.79Q183.20 21.79 181.61 22.57Q180.02 23.35 180.02 24.86L180.02 24.86Q180.02 25.79 180.52 26.55Q181.01 27.30 182.47 27.90Q183.92 28.50 186.73 29.07L186.73 29.07Q190.63 29.85 192.89 31.04Q195.16 32.24 196.14 33.83Q197.13 35.41 197.13 37.49L197.13 37.49Q197.13 39.88 195.86 41.81Q194.58 43.73 192.11 44.88Q189.64 46.02 185.95 46.02ZM217.20 46.02L217.20 46.02Q212.89 46.02 209.53 44.17Q206.18 42.33 204.28 39.08Q202.38 35.83 202.38 31.62L202.38 31.62Q202.38 27.35 204.18 24.10Q205.97 20.85 209.14 19.01Q212.32 17.16 216.42 17.16L216.42 17.16Q220.48 17.16 223.39 18.95Q226.30 20.75 227.84 23.89Q229.37 27.04 229.37 31.15L229.37 31.15Q229.37 32.14 228.70 32.79Q228.02 33.44 226.98 33.44L226.98 33.44L206.02 33.44L206.02 29.28L226.82 29.28L224.69 30.73Q224.64 28.13 223.65 26.08Q222.66 24.02 220.84 22.83Q219.02 21.63 216.42 21.63L216.42 21.63Q213.46 21.63 211.35 22.93Q209.25 24.23 208.16 26.49Q207.06 28.76 207.06 31.62L207.06 31.62Q207.06 34.48 208.36 36.71Q209.66 38.95 211.95 40.25Q214.24 41.55 217.20 41.55L217.20 41.55Q218.82 41.55 220.51 40.95Q222.20 40.35 223.24 39.57L223.24 39.57Q224.02 39.00 224.93 38.97Q225.84 38.95 226.51 39.52L226.51 39.52Q227.40 40.30 227.45 41.24Q227.50 42.17 226.62 42.85L226.62 42.85Q224.85 44.25 222.22 45.14Q219.60 46.02 217.20 46.02ZM243.00 45.81L242.89 45.81Q240.60 45.81 238.84 44.56Q237.07 43.32 236.08 41.16Q235.09 39.00 235.09 36.19L235.09 36.19L235.09 7.80Q235.09 6.66 235.82 5.93Q236.55 5.20 237.69 5.20L237.69 5.20Q238.84 5.20 239.56 5.93Q240.29 6.66 240.29 7.80L240.29 7.80L240.29 36.19Q240.29 38.12 241.02 39.36Q241.75 40.61 242.89 40.61L242.89 40.61L244.19 40.61Q245.23 40.61 245.88 41.34Q246.53 42.07 246.53 43.21L246.53 43.21Q246.53 44.36 245.54 45.08Q244.56 45.81 243.00 45.81L243.00 45.81ZM256.83 58.29L256.83 58.29Q256.31 58.29 255.58 57.98L255.58 57.98Q253.29 56.94 254.33 54.70L254.33 54.70L270.19 18.88Q271.23 16.69 273.47 17.63L273.47 17.63Q275.81 18.62 274.77 20.90L274.77 20.90L258.86 56.68Q258.23 58.29 256.83 58.29ZM262.96 44.67L262.96 44.67Q261.98 45.08 261.12 44.75Q260.26 44.41 259.74 43.42L259.74 43.42L247.83 20.80Q247.31 19.81 247.70 18.90Q248.09 17.99 249.08 17.58L249.08 17.58Q250.07 17.16 250.95 17.50Q251.84 17.84 252.30 18.82L252.30 18.82L263.69 41.44Q264.21 42.43 264.08 43.34Q263.95 44.25 262.96 44.67Z" transform="translate(0, 0)"></path></g></svg></svg>